<svg width="32" height="37" viewBox="0 0 32 37" fill="none" xmlns="http://www.w3.org/2000/svg">
    <path
        d="M16.957 0H15.0226C14.731 0 14.4946 0.2362 14.4946 0.527565V1.35483C14.4946 1.64619 14.731 1.88239 15.0226 1.88239H16.957C17.2486 1.88239 17.485 1.64619 17.485 1.35483V0.527565C17.485 0.2362 17.2486 0 16.957 0Z"
        fill="#656363" />
    <path d="M16.9593 1.88281H14.9836V5.11414H16.9593V1.88281Z" fill="#656363" />
    <path
        d="M28.1497 4.76096L27.1225 5.80288C26.9195 6.00883 26.922 6.34024 27.1281 6.54312L29.2197 8.60213C29.4258 8.80501 29.7575 8.80252 29.9605 8.59658L30.9877 7.55465C31.1907 7.3487 31.1882 7.01729 30.9821 6.81441L28.8904 4.7554C28.6843 4.55252 28.3527 4.55501 28.1497 4.76096Z"
        fill="#656363" />
    <path d="M25.2099 9.19892L26.6169 10.584L28.8871 8.28117L27.4801 6.8961L25.2099 9.19892Z" fill="#656363" />
    <path
        d="M2.90041 4.85685L0.808716 6.91586C0.602619 7.11874 0.600131 7.45015 0.803158 7.6561L1.83032 8.69803C2.03335 8.90397 2.365 8.90646 2.5711 8.70359L4.66279 6.64457C4.86889 6.4417 4.87138 6.11028 4.66835 5.90434L3.64119 4.86241C3.43816 4.65646 3.1065 4.65398 2.90041 4.85685Z"
        fill="#656363" />
    <path d="M4.32355 7.00165L2.9165 8.38672L5.18668 10.6895L6.59373 9.30446L4.32355 7.00165Z" fill="#656363" />
    <path
        d="M16 36.1739C24.8366 36.1739 32 29.0194 32 20.1939C32 11.3684 24.8366 4.21387 16 4.21387C7.16344 4.21387 0 11.3684 0 20.1939C0 29.0194 7.16344 36.1739 16 36.1739Z"
        fill="#244C80" />
    <g opacity="0.3">
        <path
            d="M1.62329 27.3896C1.65216 27.4485 1.68103 27.5068 1.7105 27.5651C1.68103 27.5068 1.65216 27.4479 1.62329 27.3896Z"
            fill="#656363" />
    </g>
    <g opacity="0.3">
        <path
            d="M1.48022 27.0908C1.50792 27.1503 1.53561 27.2092 1.56389 27.2675C1.53561 27.2086 1.50792 27.1497 1.48022 27.0908Z"
            fill="#656363" />
    </g>
    <g opacity="0.3">
        <path
            d="M1.99927 28.1123C2.03109 28.1694 2.0629 28.2259 2.09531 28.2825C2.0629 28.2259 2.0305 28.1694 1.99927 28.1123Z"
            fill="#656363" />
    </g>
    <g opacity="0.3">
        <path
            d="M1.76782 27.6777C1.82439 27.7878 1.88213 27.8968 1.94164 28.0051C1.88272 27.8968 1.82439 27.7872 1.76782 27.6777Z"
            fill="#656363" />
    </g>
    <g opacity="0.3">
        <path
            d="M4.64307 31.626C4.68313 31.6666 4.7232 31.7066 4.76386 31.7467C4.7232 31.7066 4.68313 31.666 4.64307 31.626Z"
            fill="#656363" />
    </g>
    <g opacity="0.3">
        <path
            d="M15.5269 36.3438C15.564 36.3449 15.6005 36.3461 15.6376 36.3467C15.6005 36.3461 15.564 36.3443 15.5269 36.3438Z"
            fill="#656363" />
    </g>
    <g opacity="0.3">
        <path
            d="M14.3542 36.2676C14.3814 36.2705 14.409 36.2735 14.4362 36.2764C14.4085 36.2735 14.3814 36.2705 14.3542 36.2676Z"
            fill="#656363" />
    </g>
    <g opacity="0.3">
        <path
            d="M13.9636 36.2227C14.0025 36.2274 14.042 36.2327 14.0815 36.2374C14.042 36.2327 14.0031 36.228 13.9636 36.2227Z"
            fill="#656363" />
    </g>
    <g opacity="0.3">
        <path
            d="M2.33228 28.6807C2.36645 28.736 2.40004 28.7919 2.43422 28.8467C2.39945 28.7919 2.36586 28.736 2.33228 28.6807Z"
            fill="#656363" />
    </g>
    <g opacity="0.3">
        <path
            d="M15.1509 36.3291C15.1904 36.3315 15.2304 36.3332 15.2699 36.335C15.2298 36.3332 15.1904 36.3315 15.1509 36.3291Z"
            fill="#656363" />
    </g>
    <g opacity="0.3">
        <path
            d="M31.8367 18.8764C31.8384 18.8699 31.8402 18.8635 31.8419 18.8564C31.8402 18.8629 31.8384 18.8693 31.8367 18.8764Z"
            fill="#656363" />
    </g>
    <g opacity="0.3">
        <path
            d="M31.7625 19.133C31.7642 19.1266 31.766 19.1207 31.7683 19.1143C31.7666 19.1207 31.7648 19.1266 31.7625 19.133Z"
            fill="#656363" />
    </g>
    <g opacity="0.3">
        <path
            d="M2.48193 28.9219C2.55205 29.032 2.62276 29.1409 2.69524 29.2487C2.62276 29.1403 2.55146 29.0314 2.48193 28.9219Z"
            fill="#656363" />
    </g>
    <g opacity="0.3">
        <path
            d="M4.11768 31.0723C4.17778 31.1388 4.23847 31.2047 4.29916 31.2701C4.23788 31.2047 4.17778 31.1388 4.11768 31.0723Z"
            fill="#656363" />
    </g>
    <g opacity="0.3">
        <path
            d="M3.87061 30.792C3.90949 30.8367 3.94779 30.8821 3.98727 30.9262C3.94779 30.8815 3.90949 30.8367 3.87061 30.792Z"
            fill="#656363" />
    </g>
    <g opacity="0.3">
        <path
            d="M2.77222 29.3633C2.80757 29.4157 2.84411 29.4675 2.88005 29.5187C2.84411 29.4669 2.80757 29.4151 2.77222 29.3633Z"
            fill="#656363" />
    </g>
    <g opacity="0.3">
        <path
            d="M3.65552 30.5371C3.69382 30.5836 3.73271 30.6301 3.77218 30.6767C3.7333 30.6307 3.69441 30.5842 3.65552 30.5371Z"
            fill="#656363" />
    </g>
    <g opacity="0.3">
        <path
            d="M5.72974 32.625C5.7698 32.6586 5.80928 32.6921 5.84994 32.7251C5.80987 32.6921 5.7698 32.6586 5.72974 32.625Z"
            fill="#656363" />
    </g>
    <g opacity="0.3">
        <path
            d="M7.28394 33.7734C7.32224 33.7982 7.36112 33.8229 7.39942 33.847C7.36112 33.8223 7.32224 33.7982 7.28394 33.7734Z"
            fill="#656363" />
    </g>
    <g opacity="0.3">
        <path
            d="M6.91992 33.5293C6.9541 33.5528 6.98827 33.577 7.02304 33.6005C6.98827 33.577 6.95469 33.5528 6.91992 33.5293Z"
            fill="#656363" />
    </g>
    <g opacity="0.3">
        <path
            d="M6.62524 33.3213C6.66649 33.3507 6.70715 33.3808 6.74839 33.4102C6.70715 33.3808 6.6659 33.3513 6.62524 33.3213Z"
            fill="#656363" />
    </g>
    <g opacity="0.3">
        <path
            d="M7.86816 34.1367C7.90646 34.1597 7.94535 34.1826 7.98365 34.205C7.94476 34.1826 7.90646 34.1597 7.86816 34.1367Z"
            fill="#656363" />
    </g>
    <g opacity="0.3">
        <path
            d="M8.55981 34.5225C8.59929 34.5431 8.63936 34.5637 8.67943 34.5843C8.63936 34.5637 8.59988 34.5431 8.55981 34.5225Z"
            fill="#656363" />
    </g>
    <g opacity="0.3">
        <path
            d="M4.88965 31.8682C4.9468 31.9235 5.00396 31.9783 5.06229 32.0324C5.00455 31.9783 4.9468 31.9235 4.88965 31.8682Z"
            fill="#656363" />
    </g>
    <g opacity="0.3">
        <path
            d="M6.06616 32.8984C6.10859 32.932 6.1516 32.9656 6.19462 32.9985C6.1516 32.965 6.10859 32.932 6.06616 32.8984Z"
            fill="#656363" />
    </g>
    <g opacity="0.3">
        <path
            d="M5.47095 32.4033C5.51219 32.4392 5.55344 32.4752 5.59527 32.5111C5.55344 32.4752 5.51219 32.4398 5.47095 32.4033Z"
            fill="#656363" />
    </g>
    <g opacity="0.3">
        <path
            d="M5.22168 32.1816C5.26175 32.2181 5.30181 32.2535 5.34188 32.2894C5.30181 32.2535 5.26116 32.2176 5.22168 32.1816Z"
            fill="#656363" />
    </g>
    <g opacity="0.3">
        <path
            d="M11.6958 35.7666C11.7229 35.7743 11.75 35.7819 11.7777 35.7896C11.7506 35.7819 11.7235 35.7743 11.6958 35.7666Z"
            fill="#656363" />
    </g>
    <g opacity="0.3">
        <path
            d="M11.3267 35.6592C11.3656 35.671 11.405 35.6827 11.4439 35.6945C11.4044 35.6827 11.3656 35.671 11.3267 35.6592Z"
            fill="#656363" />
    </g>
    <g opacity="0.3">
        <path
            d="M12.4504 35.9561C12.4893 35.9649 12.5288 35.9737 12.5677 35.982C12.5288 35.9731 12.4893 35.9649 12.4504 35.9561Z"
            fill="#656363" />
    </g>
    <g opacity="0.3">
        <path
            d="M10.991 35.5527C11.0293 35.5651 11.067 35.5775 11.1053 35.5898C11.067 35.5775 11.0287 35.5657 10.991 35.5527Z"
            fill="#656363" />
    </g>
    <g opacity="0.3">
        <path
            d="M10.2419 35.2852C10.2785 35.2993 10.3144 35.3134 10.3509 35.327C10.3144 35.3134 10.2779 35.2987 10.2419 35.2852Z"
            fill="#656363" />
    </g>
    <g opacity="0.3">
        <path
            d="M9.20459 34.8428C9.23464 34.8569 9.2641 34.871 9.29415 34.8852C9.2641 34.8716 9.23464 34.8569 9.20459 34.8428Z"
            fill="#656363" />
    </g>
    <g opacity="0.3">
        <path
            d="M9.90967 35.1533C9.94974 35.1698 9.98921 35.1857 10.0293 35.2022C9.98921 35.1863 9.94915 35.1698 9.90967 35.1533Z"
            fill="#656363" />
    </g>
    <g opacity="0.3">
        <path
            d="M8.86719 34.6807C8.90725 34.7007 8.94673 34.7201 8.9868 34.7401C8.94673 34.7207 8.90725 34.7007 8.86719 34.6807Z"
            fill="#656363" />
    </g>
    <g opacity="0.3">
        <path
            d="M10.6658 35.4424C10.6834 35.4489 10.7017 35.4547 10.72 35.4612C10.7017 35.4547 10.684 35.4489 10.6658 35.4424Z"
            fill="#656363" />
    </g>
    <path
        d="M16.0001 32.3167C22.6065 32.3167 27.9621 26.9687 27.9621 20.3717C27.9621 13.7747 22.6065 8.42676 16.0001 8.42676C9.39365 8.42676 4.03809 13.7747 4.03809 20.3717C4.03809 26.9687 9.39365 32.3167 16.0001 32.3167Z"
        stroke="#656363" stroke-width="1.31425" stroke-miterlimit="10" />
    <path
        d="M16 33.5744C23.3012 33.5744 29.22 27.6631 29.22 20.3712C29.22 13.0793 23.3012 7.16797 16 7.16797C8.69883 7.16797 2.78003 13.0793 2.78003 20.3712C2.78003 27.6631 8.69883 33.5744 16 33.5744Z"
        fill="white" />
    <path
        d="M16.0001 21.6355C15.3024 21.6355 14.7356 21.0685 14.7356 20.372C14.7356 19.6754 15.303 19.1084 16.0001 19.1084C16.6972 19.1084 17.2646 19.6754 17.2646 20.372C17.2646 21.0685 16.6972 21.6355 16.0001 21.6355ZM16.0001 19.5023C15.5199 19.5023 15.1298 19.8927 15.1298 20.372C15.1298 20.8512 15.5205 21.2416 16.0001 21.2416C16.4797 21.2416 16.8704 20.8512 16.8704 20.372C16.8704 19.8927 16.4797 19.5023 16.0001 19.5023Z"
        fill="#656363" />
    <path
        d="M16.3365 20.3714C16.3365 20.5568 16.1856 20.7076 16 20.7076C15.8144 20.7076 15.6636 20.5568 15.6636 20.3714C15.6636 20.1859 15.8144 20.0352 16 20.0352C16.1856 20.0352 16.3365 20.1859 16.3365 20.3714Z"
        fill="#656363" />
    <path
        d="M16.5828 16.5072C16.3984 16.2846 16.1709 15.7329 16.122 15.3066C16.099 14.971 16.0649 14.6354 16.0001 14.2998C15.9376 14.6242 15.9034 14.9481 15.8804 15.2725C15.8404 15.7029 15.6059 16.2788 15.4167 16.5072C15.2358 16.7257 14.9318 17.6259 15.749 17.8567C15.7461 17.9227 15.7437 17.9886 15.7408 18.0546C15.7237 18.4714 15.7119 18.8889 15.7037 19.3058H16.2947C16.2864 18.8883 16.2746 18.4714 16.2576 18.0546C16.2546 17.9886 16.2522 17.9227 16.2493 17.8567C17.0666 17.6259 16.7619 16.7257 16.5816 16.5078L16.5828 16.5072Z"
        fill="#656363" />
    <path
        d="M18.9361 24.8794C19.2219 24.9206 19.754 25.2297 20.0769 25.5124C20.3067 25.7667 21.5759 27.1168 21.666 27.0179C21.7562 26.9196 20.52 25.5465 20.319 25.2904C20.0592 24.9442 19.8129 24.3925 19.7993 24.0963C19.7864 23.8137 19.4069 22.9423 18.6462 23.3197C18.6038 23.269 18.5614 23.219 18.5195 23.1678C18.252 22.8475 17.0482 21.3931 16.7742 21.0781L16.3364 21.475C16.6234 21.7782 17.8437 23.2172 18.1365 23.5146C18.1831 23.5617 18.229 23.6088 18.275 23.6559C17.8248 24.3754 18.6551 24.8382 18.9355 24.8782L18.9361 24.8794Z"
        fill="#656363" />
    <path
        d="M16.0129 11.635C15.8897 11.635 15.7896 11.5349 15.7896 11.4119V9.11378C15.7896 8.99072 15.8897 8.89062 16.0129 8.89062C16.136 8.89062 16.2362 8.99072 16.2362 9.11378V11.4119C16.2362 11.5349 16.136 11.635 16.0129 11.635Z"
        fill="#656363" />
    <path
        d="M7.03359 20.5821H4.73382C4.61067 20.5821 4.5105 20.482 4.5105 20.3589C4.5105 20.2358 4.61067 20.1357 4.73382 20.1357H7.03359C7.15674 20.1357 7.25691 20.2358 7.25691 20.3589C7.25691 20.482 7.15674 20.5821 7.03359 20.5821Z"
        fill="#656363" />
    <path
        d="M15.987 31.8528C15.8638 31.8528 15.7637 31.7527 15.7637 31.6296V29.3316C15.7637 29.2085 15.8638 29.1084 15.987 29.1084C16.1101 29.1084 16.2103 29.2085 16.2103 29.3316V31.6296C16.2103 31.7527 16.1101 31.8528 15.987 31.8528Z"
        fill="#656363" />
    <path
        d="M27.266 20.6084H24.9662C24.8431 20.6084 24.7429 20.5083 24.7429 20.3853C24.7429 20.2622 24.8431 20.1621 24.9662 20.1621H27.266C27.3892 20.1621 27.4893 20.2622 27.4893 20.3853C27.4893 20.5083 27.3892 20.6084 27.266 20.6084Z"
        fill="#656363" />
</svg>
