<svg xmlns="http://www.w3.org/2000/svg" width="181" height="31" viewBox="0 0 181 31" fill="none">
    <g clip-path="url(#clip0_656_1832)">
        <path fill-rule="evenodd" clip-rule="evenodd"
            d="M29.8387 4.12971C29.5423 3.36897 28.8553 2.28221 27.8853 1.52147C27.3195 1.08677 26.6594 0.665644 25.7434 0.393953C24.76 0.095092 23.5611 0 22.0657 0H8.36546C6.87015 0 5.65773 0.095092 4.6878 0.393953C3.77176 0.665644 3.09819 1.08677 2.54587 1.52147C1.57594 2.28221 0.888903 3.35539 0.592535 4.12971C-0.000200616 5.67835 -0.0136719 7.41718 -0.0136719 8.51753V22.4689C-0.0136719 23.5692 -0.0136719 25.3216 0.592535 26.8567C0.888903 27.6174 1.57594 28.7042 2.54587 29.4649C3.11166 29.8997 3.77176 30.3208 4.6878 30.5925C5.6712 30.8913 6.87015 30.9864 8.36546 30.9864H22.0657C23.5611 30.9864 24.7735 30.8913 25.7434 30.5925C26.6594 30.3208 27.333 29.8997 27.8853 29.4649C28.8553 28.7042 29.5423 27.631 29.8387 26.8567C30.4314 25.3081 30.4449 23.5692 30.4449 22.4689V8.51753C30.4449 7.41718 30.4449 5.66477 29.8387 4.12971ZM17.7819 21.0561C17.7011 22.007 17.5529 23.2704 17.3508 24.5609C17.2161 25.4847 17.0948 25.9737 16.9871 26.3269C16.8254 26.8975 16.1923 27.4001 15.2089 27.4001C14.2255 27.4001 13.6058 26.8975 13.4307 26.3269C13.3229 25.9737 13.2151 25.4711 13.0669 24.5609C12.8649 23.2704 12.7167 22.007 12.6359 21.0561C12.555 20.0644 12.5146 19.4395 12.582 18.706C12.6224 18.3256 12.7436 18.0675 12.9861 17.8094C13.4441 17.3203 14.2389 17.0079 15.1954 17.0079C16.1519 17.0079 16.9467 17.3203 17.4047 17.8094C17.6472 18.0675 17.7684 18.3256 17.8088 18.706C17.8896 19.4259 17.8492 20.0508 17.7549 21.0561H17.7819ZM11.2618 18.6516C11.3561 18.7467 11.41 18.869 11.3965 19.0048C11.3696 19.4124 11.383 19.8063 11.3965 20.2546C11.3965 20.3769 11.2753 20.4448 11.181 20.3769C9.26804 19.0456 8.01521 16.7905 8.04215 14.2502C8.09603 10.3786 11.1405 7.19983 14.926 7.05039C19.0078 6.88738 22.3756 10.2292 22.3756 14.3453C22.3756 16.8449 21.1362 19.0592 19.2368 20.3769C19.1425 20.4448 19.0078 20.3769 19.0212 20.2546C19.0482 19.8063 19.0616 19.4124 19.0212 19.0048C19.0212 18.869 19.0616 18.7467 19.1559 18.6516C20.2875 17.5784 20.988 16.0434 20.988 14.3453C20.988 11.0171 18.2668 8.31376 14.9529 8.43602C11.9084 8.55828 9.45663 11.085 9.38928 14.1823C9.34886 15.9347 10.0628 17.5377 11.2214 18.6516H11.2618ZM17.7145 13.4487C17.7145 14.8479 16.5964 15.989 15.2223 15.989C13.8483 15.989 12.7302 14.8479 12.7302 13.4487C12.7302 12.0495 13.8483 10.9084 15.2223 10.9084C16.5964 10.9084 17.7145 12.0495 17.7145 13.4487ZM18.7653 24.6288C18.6575 24.6696 18.5632 24.5745 18.5767 24.4658C18.6306 24.099 18.6845 23.7187 18.7249 23.3519C18.7383 23.216 18.8192 23.1074 18.9404 23.053C22.2409 21.5859 24.5579 18.2305 24.5579 14.3317C24.5579 9.06091 20.3279 4.78177 15.1415 4.82252C10.0763 4.86328 5.92716 9.0745 5.88675 14.2366C5.84633 18.1762 8.17686 21.5723 11.4908 23.0394C11.612 23.0938 11.6929 23.2025 11.7063 23.3383C11.7602 23.7051 11.8006 24.0855 11.868 24.4522C11.8815 24.5609 11.7737 24.6424 11.6794 24.6153C7.47636 23.1074 4.45879 18.9912 4.51268 14.1959C4.58003 8.25942 9.36233 3.45048 15.1819 3.4369C21.0958 3.42331 25.9185 8.31376 25.9185 14.3317C25.9185 19.0727 22.9279 23.1209 18.7518 24.6153L18.7653 24.6288Z"
            fill="white"></path>
        <path
            d="M46.8259 19.8877H41.1007L39.7266 24.0174H37.3018L42.7307 8.72119H45.2498L50.6787 24.0174H48.2135L46.8394 19.8877H46.8259ZM41.6934 17.9859H46.2332L43.997 11.2751H43.9296L41.6934 17.9859Z"
            fill="white"></path>
        <path
            d="M62.3854 18.4478C62.3854 21.9119 60.5668 24.1397 57.8186 24.1397C56.256 24.1397 55.0166 23.4333 54.37 22.1836H54.3161V27.7125H52.0664V12.8645H54.2488V14.7256H54.2892C54.9088 13.5302 56.2425 12.7559 57.7782 12.7559C60.5533 12.7559 62.3854 14.9973 62.3854 18.4478ZM60.0683 18.4478C60.0683 16.1928 58.9233 14.712 57.172 14.712C55.4207 14.712 54.3026 16.2335 54.3026 18.4478C54.3026 20.6621 55.4612 22.1971 57.172 22.1971C58.8829 22.1971 60.0683 20.73 60.0683 18.4478Z"
            fill="white"></path>
        <path
            d="M74.442 18.4478C74.442 21.9119 72.6234 24.1397 69.8753 24.1397C68.3126 24.1397 67.0733 23.4333 66.4266 22.1836H66.3728V27.7125H64.123V12.8645H66.3054V14.7256H66.3458C66.9655 13.5302 68.2991 12.7559 69.8349 12.7559C72.6099 12.7559 74.442 14.9973 74.442 18.4478ZM72.125 18.4478C72.125 16.1928 70.9799 14.712 69.2287 14.712C67.4774 14.712 66.3593 16.2335 66.3593 18.4478C66.3593 20.6621 67.5178 22.1971 69.2287 22.1971C70.9395 22.1971 72.125 20.73 72.125 18.4478Z"
            fill="white"></path>
        <path d="M76.2607 8.72119H78.5104V24.0174H76.2607V8.72119Z" fill="white"></path>
        <path
            d="M90.2172 20.7438C89.9208 22.7679 87.981 24.1535 85.5023 24.1535C82.3096 24.1535 80.3428 21.98 80.3428 18.4888C80.3428 14.9975 82.3365 12.7153 85.408 12.7153C88.4794 12.7153 90.3385 14.8345 90.3385 18.2171V19.005H82.6059V19.1408C82.6059 21.0427 83.7779 22.306 85.5562 22.306C86.809 22.306 87.7789 21.7083 88.0888 20.7438H90.2172ZM82.6194 17.4156H88.0888C88.0349 15.7039 86.9706 14.59 85.408 14.59C83.8453 14.59 82.7272 15.7311 82.6194 17.4156Z"
            fill="white"></path>
        <path
            d="M102.314 8.72119C105.224 8.72119 107.258 10.7725 107.258 13.7475C107.258 16.7225 105.183 18.7874 102.247 18.7874H99.0136V24.0174H96.6831V8.72119H102.314ZM99.0136 16.804H101.694C103.729 16.804 104.874 15.6901 104.874 13.7611C104.874 11.8321 103.715 10.7317 101.694 10.7317H99.0136V16.804Z"
            fill="white"></path>
        <path
            d="M108.08 18.4476C108.08 14.9428 110.114 12.7285 113.28 12.7285C116.446 12.7285 118.48 14.9292 118.48 18.4476C118.48 21.966 116.473 24.1667 113.28 24.1667C110.087 24.1667 108.08 21.966 108.08 18.4476ZM116.176 18.4476C116.176 16.0432 115.099 14.6168 113.267 14.6168C111.434 14.6168 110.357 16.0432 110.357 18.4476C110.357 20.8521 111.434 22.2785 113.267 22.2785C115.099 22.2785 116.176 20.8657 116.176 18.4476Z"
            fill="white"></path>
        <path
            d="M120.042 18.4477C120.042 14.9973 121.902 12.7558 124.623 12.7558C126.199 12.7558 127.438 13.503 128.058 14.7256H128.098V8.72119H130.361V24.0174H128.179V22.1156H128.139C127.492 23.3925 126.239 24.1261 124.65 24.1261C121.915 24.1261 120.042 21.8846 120.042 18.4342V18.4477ZM122.346 18.4477C122.346 20.7435 123.491 22.1971 125.242 22.1971C126.994 22.1971 128.125 20.7164 128.125 18.4477C128.125 16.1791 126.967 14.712 125.242 14.712C123.491 14.712 122.346 16.1791 122.346 18.4477Z"
            fill="white"></path>
        <path
            d="M139.926 16.7088C139.724 15.5269 138.821 14.6575 137.339 14.6575C135.615 14.6575 134.47 16.1247 134.47 18.4476C134.47 20.7706 135.629 22.2513 137.366 22.2513C138.767 22.2513 139.683 21.5449 139.926 20.2544H142.095C141.839 22.5909 140.007 24.1667 137.353 24.1667C134.228 24.1667 132.193 21.9932 132.193 18.4476C132.193 14.902 134.228 12.7285 137.339 12.7285C140.155 12.7285 141.906 14.5353 142.081 16.7088H139.939H139.926Z"
            fill="white"></path>
        <path
            d="M143.469 20.8522C143.469 18.896 144.938 17.7277 147.538 17.5647L150.542 17.4017V16.5595C150.542 15.3233 149.747 14.6169 148.373 14.6169C147.12 14.6169 146.244 15.2282 146.069 16.1927H143.968C144.035 14.1822 145.867 12.7422 148.44 12.7422C151.013 12.7422 152.778 14.1957 152.778 16.3829V24.031H150.622V22.1971H150.569C149.935 23.4332 148.548 24.2212 147.106 24.2212C144.965 24.2212 143.469 22.8627 143.469 20.8658V20.8522ZM150.542 19.8469V18.9911L147.847 19.1541C146.5 19.2356 145.746 19.8333 145.746 20.7843C145.746 21.7352 146.541 22.4008 147.74 22.4008C149.316 22.4008 150.542 21.3005 150.542 19.8469Z"
            fill="white"></path>
        <path
            d="M159.056 12.7422C161.48 12.7422 163.218 14.1142 163.272 16.084H161.157C161.063 15.0923 160.241 14.4946 158.988 14.4946C157.735 14.4946 156.954 15.0651 156.954 15.9346C156.954 16.6002 157.493 17.0485 158.638 17.3338L160.483 17.7685C162.693 18.3119 163.528 19.1405 163.528 20.7707C163.528 22.7812 161.655 24.1668 158.975 24.1668C156.294 24.1668 154.65 22.8219 154.489 20.7843H156.712C156.873 21.8574 157.708 22.428 159.082 22.428C160.457 22.428 161.265 21.871 161.265 20.9744C161.265 20.2816 160.847 19.9148 159.702 19.616L157.749 19.1269C155.769 18.6379 154.772 17.6055 154.772 16.0568C154.772 14.0871 156.509 12.7422 159.056 12.7422Z"
            fill="white"></path>
        <path
            d="M168.405 10.229V12.8644H170.493V14.6712H168.405V20.825C168.405 21.7759 168.822 22.2242 169.738 22.2242C169.967 22.2242 170.331 22.197 170.479 22.1698V23.9766C170.223 24.0445 169.725 24.0853 169.226 24.0853C167.004 24.0853 166.141 23.243 166.141 21.0695V14.6712H164.552V12.8644H166.141V10.229H168.405Z"
            fill="white"></path>
        <path
            d="M176.541 12.7422C178.966 12.7422 180.704 14.1142 180.758 16.084H178.643C178.548 15.0923 177.727 14.4946 176.474 14.4946C175.221 14.4946 174.44 15.0651 174.44 15.9346C174.44 16.6002 174.978 17.0485 176.11 17.3338L177.956 17.7685C180.165 18.3119 181 19.1405 181 20.7707C181 22.7812 179.128 24.1668 176.447 24.1668C173.766 24.1668 172.123 22.8219 171.961 20.7843H174.184C174.345 21.8574 175.181 22.428 176.541 22.428C177.902 22.428 178.724 21.871 178.724 20.9744C178.724 20.2816 178.306 19.9148 177.161 19.616L175.208 19.1269C173.227 18.6379 172.23 17.6055 172.23 16.0568C172.23 14.0871 173.968 12.7422 176.514 12.7422H176.541Z"
            fill="white"></path>
    </g>
    <defs>
        <clipPath id="clip0_656_1832">
            <rect width="181" height="31" fill="white"></rect>
        </clipPath>
    </defs>
</svg>
