<svg xmlns="http://www.w3.org/2000/svg" width="158" height="58" viewBox="0 0 158 58" fill="none">
    <path d="M45.5 20.5V37.5" stroke="white" stroke-width="3" stroke-linecap="round" />
    <path d="M53.5 24.5V33.5" stroke="white" stroke-width="3" stroke-linecap="round" />
    <path d="M61.5 20.5V37.5" stroke="white" stroke-width="3" stroke-linecap="round" />
    <path d="M69.5 24.5V33.5" stroke="white" stroke-width="3" stroke-linecap="round" />
    <path
        d="M83.0125 36.4409C81.4035 36.4409 80.0994 35.1368 80.0994 33.5278V33.2176C80.0994 31.6086 81.4035 30.3044 83.0125 30.3044C84.6215 30.3044 85.9256 31.6086 85.9256 33.2176V33.5278C85.9256 35.1368 84.6215 36.4409 83.0125 36.4409Z"
        fill="white" />
    <path
        d="M83.0125 27.7013C81.4035 27.7013 80.0994 26.3972 80.0994 24.7882V24.478C80.0994 22.869 81.4035 21.5649 83.0125 21.5649C84.6215 21.5649 85.9256 22.869 85.9256 24.478V24.7882C85.9256 26.3972 84.6215 27.7013 83.0125 27.7013Z"
        fill="white" />
    <path
        d="M96.2283 27.7013C94.6193 27.7013 93.3152 26.3972 93.3152 24.7882V24.478C93.3152 22.869 94.6193 21.5649 96.2283 21.5649C97.8373 21.5649 99.1414 22.869 99.1414 24.478V24.7882C99.1414 26.3972 97.8373 27.7013 96.2283 27.7013Z"
        fill="white" />
    <path
        d="M96.2283 36.4409C94.6193 36.4409 93.3152 35.1368 93.3152 33.5278V33.2176C93.3152 31.6086 94.6193 30.3044 96.2283 30.3044C97.8373 30.3044 99.1414 31.6086 99.1414 33.2176V33.5278C99.1414 35.1368 97.8373 36.4409 96.2283 36.4409Z"
        fill="white" />
    <path
        d="M89.6199 24.1679C91.2289 24.1679 92.533 22.8638 92.533 21.2548V20.9446C92.533 19.3356 91.2289 18.0315 89.6199 18.0315C88.0109 18.0315 86.7068 19.3356 86.7068 20.9446V21.2548C86.7068 22.8638 88.0109 24.1679 89.6199 24.1679Z"
        fill="white" />
    <path
        d="M89.6199 40.0377C91.2289 40.0377 92.533 38.7336 92.533 37.1246V36.8144C92.533 35.2054 91.2289 33.9012 89.6199 33.9012C88.0109 33.9012 86.7068 35.2054 86.7068 36.8144V37.1246C86.7068 38.7336 88.0109 40.0377 89.6199 40.0377Z"
        fill="white" />
    <path
        d="M89.6199 32.4411C88.0109 32.4411 86.7068 31.137 86.7068 29.528V29.2178C86.7068 27.6088 88.0109 26.3047 89.6199 26.3047C91.2289 26.3047 92.533 27.6088 92.533 29.2178V29.528C92.533 31.137 91.2289 32.4411 89.6199 32.4411Z"
        fill="white" />
    <path
        d="M102.837 32.4411C101.228 32.4411 99.9238 31.137 99.9238 29.528V29.2178C99.9238 27.6088 101.228 26.3047 102.837 26.3047C104.446 26.3047 105.75 27.6088 105.75 29.2178V29.528C105.75 31.137 104.446 32.4411 102.837 32.4411Z"
        fill="white" />
    <path
        d="M112.566 31.1545C112.566 31.9269 112.514 32.621 112.41 33.2367C112.316 33.8424 112.168 34.3698 111.966 34.819C111.773 35.2682 111.532 35.639 111.243 35.9416C110.963 36.2342 110.634 36.465 110.258 36.634C109.881 36.8031 109.463 36.9206 109.005 36.9866C108.556 37.0525 108.069 37.0855 107.544 37.0855H106.704V23.9145H107.535C108.069 23.9145 108.56 23.9475 109.009 24.0134C109.467 24.0794 109.885 24.1969 110.262 24.3659C110.639 24.5349 110.967 24.7657 111.247 25.0584C111.536 25.3609 111.778 25.7368 111.971 26.1859C112.172 26.6351 112.321 27.1625 112.415 27.7681C112.518 28.3738 112.569 29.0729 112.569 29.8453L112.566 31.1545ZM110.634 29.9354C110.634 29.3593 110.605 28.8455 110.547 28.3941C110.497 27.9427 110.422 27.5518 110.322 27.2212C110.223 26.8907 110.099 26.6149 109.951 26.3939C109.803 26.1728 109.642 25.9968 109.467 25.8657C109.293 25.7347 109.105 25.6387 108.904 25.5778C108.704 25.5168 108.499 25.4863 108.291 25.4863H108.552V35.5087H108.291C108.499 35.5087 108.704 35.4783 108.904 35.4173C109.105 35.3563 109.293 35.2603 109.467 35.1293C109.642 34.9983 109.803 34.8222 109.951 34.6012C110.099 34.3801 110.223 34.1043 110.322 33.7738C110.422 33.4433 110.497 33.0573 110.547 32.6059C110.605 32.1545 110.634 31.6357 110.634 31.0596V29.9354Z"
        fill="white" />
    <path
        d="M121.31 37.0858H119.452L116.744 23.9148H118.646L120.387 33.9733H120.387L122.128 23.9148H124.031L121.31 37.0858Z"
        fill="white" />
    <path
        d="M131.962 36.5537C131.757 36.6757 131.51 36.7817 131.222 36.8727C130.933 36.9637 130.627 37.0092 130.304 37.0092C129.837 37.0092 129.414 36.9333 129.037 36.7817C128.661 36.6301 128.337 36.4035 128.067 36.102C127.805 35.8005 127.601 35.4239 127.454 34.9724C127.315 34.521 127.245 33.9925 127.245 33.387V29.2078C127.245 28.6023 127.315 28.0738 127.454 27.6224C127.601 27.171 127.805 26.7955 128.067 26.4929C128.337 26.1904 128.661 25.9637 129.037 25.8132C129.414 25.6616 129.837 25.5857 130.304 25.5857C130.627 25.5857 130.933 25.6312 131.222 25.7222C131.51 25.8132 131.757 25.9192 131.962 26.0412V27.7681C131.743 27.6019 131.527 27.4707 131.313 27.3746C131.099 27.2786 130.883 27.2306 130.666 27.2306C130.331 27.2306 130.046 27.2886 129.815 27.4047C129.583 27.5207 129.396 27.6828 129.253 27.8908C129.118 28.0989 129.018 28.3425 128.953 28.6218C128.896 28.9011 128.868 29.1992 128.868 29.5162V33.0787C128.868 33.3956 128.896 33.6938 128.953 33.9731C129.018 34.2523 129.118 34.496 129.253 34.704C129.396 34.912 129.583 35.0741 129.815 35.1902C130.046 35.3062 130.331 35.3642 130.666 35.3642C130.883 35.3642 131.099 35.3162 131.313 35.2202C131.527 35.1241 131.743 34.9929 131.962 34.8267V36.5537Z"
        fill="white" />
</svg>
