<svg width="2400" height="1141" viewBox="0 0 2400 1141" fill="none" xmlns="http://www.w3.org/2000/svg">
    <path
        d="M1818.23 342.661C1791.31 342.661 1767.38 358.872 1757.29 383.945L1677.35 384.351C1685.48 399.399 1692.87 414.871 1699.54 430.731H1756.5C1768.06 459.571 1792.53 473.991 1818.23 473.991C1854.47 473.991 1883.95 444.542 1883.95 408.354C1883.95 372.166 1854.45 342.698 1818.23 342.698V342.661ZM1818.23 429.217C1806.72 429.217 1797.35 419.838 1797.35 408.335C1797.35 396.833 1806.74 387.453 1818.23 387.453C1829.73 387.453 1839.13 396.833 1839.13 408.335C1839.13 419.838 1829.75 429.217 1818.23 429.217Z"
        fill="#007CFF" />
    <path
        d="M2095.13 756.406C2069.53 756.406 2045.05 770.697 2033.37 799.684H1882.34C1873.32 799.684 1872.65 797.026 1837.71 763.238C1818.66 744.811 1793.6 734.693 1767.1 734.693H1733.17C1730.49 749.852 1727.15 764.77 1723.21 779.449H1767.1C1818.82 779.449 1827.86 844.458 1882.34 844.458H2033.37C2045.14 873.63 2069.74 887.718 2095.13 887.718C2131.36 887.718 2160.84 858.269 2160.84 822.08C2160.84 785.892 2131.35 756.425 2095.13 756.425V756.406ZM2095.13 842.944C2083.61 842.944 2074.24 833.583 2074.24 822.08C2074.24 810.578 2083.63 801.198 2095.13 801.198C2106.62 801.198 2116.03 810.578 2116.03 822.08C2116.03 833.583 2106.64 842.944 2095.13 842.944Z"
        fill="#244C80" />
    <path
        d="M2018.81 322.389C1982.57 322.389 1953.1 351.838 1953.1 388.026C1953.1 403.941 1958.25 416.053 1966.59 427.852L1915.34 484.7C1905.96 495.114 1892.56 501.077 1878.57 501.077H1755.48L1713.92 468.84C1722.25 493.766 1728.79 519.467 1733.43 545.851H1878.57C1905.24 545.851 1930.79 534.496 1948.62 514.666L2004.95 452.205C2050.08 460.606 2084.52 426.818 2084.52 388.044C2084.52 351.838 2055.05 322.407 2018.83 322.407L2018.81 322.389ZM2018.81 408.927C2016.85 408.927 2014.84 408.594 2012.62 407.911L2011.44 407.228L1999.54 396.094C1998.46 393.528 1997.89 390.814 1997.89 388.044C1997.89 376.542 2007.28 367.181 2018.79 367.181C2030.3 367.181 2039.67 376.56 2039.67 388.044C2039.67 399.529 2030.3 408.927 2018.79 408.927H2018.81Z"
        fill="#244C80" />
    <path
        d="M2334.32 644.242C2308.44 644.242 2284.1 658.792 2272.57 687.502H2019.34C2015.43 687.502 2011.62 685.84 2008.96 682.96C1966.88 637.392 1972.22 642.618 1962.19 634.254L1998.11 595.351C2007.68 584.993 2021.25 579.048 2035.35 579.048H2148.07C2159.71 607.943 2184.18 622.326 2209.83 622.326C2246.07 622.326 2275.54 592.859 2275.54 556.67C2275.54 520.482 2246.05 491.033 2209.83 491.033C2184.24 491.033 2159.73 505.305 2148.07 534.293H2035.35C1956.88 534.293 1950.07 614.11 1895.61 614.11H1740.97C1741.38 622.566 1741.56 631.078 1741.56 639.645C1741.56 646.089 1741.45 652.514 1741.23 658.902H1903.55C1917.65 658.902 1931.22 664.866 1940.79 675.205L1975.99 713.351C1987.12 725.407 2002.92 732.313 2019.33 732.313H2272.55C2284.21 761.337 2308.77 775.591 2334.31 775.591C2370.54 775.591 2400 746.123 2400 709.935C2400 673.747 2370.53 644.298 2334.31 644.298L2334.32 644.242ZM2209.83 535.77C2221.36 535.77 2230.73 545.131 2230.73 556.634C2230.73 568.136 2221.34 577.516 2209.83 577.516C2198.32 577.516 2188.95 568.136 2188.95 556.634C2188.95 545.131 2198.32 535.77 2209.83 535.77ZM2334.32 730.762C2322.79 730.762 2313.42 721.382 2313.42 709.88C2313.42 698.377 2322.81 689.016 2334.32 689.016C2345.84 689.016 2355.21 698.395 2355.21 709.88C2355.21 721.364 2345.84 730.762 2334.32 730.762Z"
        fill="#007CFF" />
    <path
        d="M642.711 383.945C632.621 358.872 608.709 342.661 581.766 342.661C545.528 342.661 516.054 372.129 516.054 408.317C516.054 444.505 545.547 473.954 581.766 473.954C607.471 473.954 631.937 459.534 643.505 430.694H700.459C707.13 414.834 714.521 399.381 722.652 384.315L642.711 383.908V383.945ZM581.785 429.217C570.254 429.217 560.885 419.838 560.885 408.335C560.885 396.833 570.272 387.453 581.785 387.453C593.297 387.453 602.666 396.833 602.666 408.335C602.666 419.838 593.279 429.217 581.785 429.217Z"
        fill="#007CFF" />
    <path
        d="M666.843 734.712H632.915C606.435 734.712 581.358 744.83 562.306 763.256C527.362 797.044 526.696 799.703 517.678 799.703H366.647C354.968 770.715 330.483 756.425 304.889 756.425C268.651 756.425 239.177 785.892 239.177 822.08C239.177 858.269 268.67 887.718 304.889 887.718C330.28 887.718 354.876 873.63 366.647 844.458H517.678C572.155 844.458 581.192 779.449 632.915 779.449H676.804C672.868 764.77 669.523 749.852 666.843 734.693V734.712ZM304.889 842.944C293.358 842.944 283.989 833.583 283.989 822.08C283.989 810.578 293.377 801.198 304.889 801.198C316.402 801.198 325.771 810.578 325.771 822.08C325.771 833.583 316.383 842.944 304.889 842.944Z"
        fill="#244C80" />
    <path
        d="M644.556 501.077H521.466C507.477 501.077 494.079 495.114 484.692 484.7L433.449 427.852C441.764 416.053 446.939 403.941 446.939 388.026C446.939 351.819 417.446 322.389 381.226 322.389C345.007 322.389 315.532 351.838 315.532 388.026C315.532 426.799 349.959 460.587 395.104 452.186L451.429 514.648C469.28 534.478 494.818 545.832 521.484 545.832H666.621C671.24 519.448 677.782 493.747 686.135 468.822L644.575 501.059L644.556 501.077ZM400.482 396.094L388.581 407.228L387.398 407.911C385.199 408.594 383.185 408.927 381.208 408.927C369.677 408.927 360.326 399.547 360.326 388.044C360.326 376.542 369.695 367.181 381.208 367.181C392.72 367.181 402.108 376.56 402.108 388.044C402.108 390.814 401.553 393.547 400.463 396.094H400.482Z"
        fill="#244C80" />
    <path
        d="M659.046 614.075H504.411C449.953 614.075 443.134 534.258 364.671 534.258H251.947C240.286 505.27 215.783 490.998 190.189 490.998C153.951 490.998 124.477 520.447 124.477 556.635C124.477 592.824 153.97 622.291 190.189 622.291C215.838 622.291 240.305 607.927 251.947 579.013H364.671C378.77 579.013 392.334 584.977 401.906 595.316L437.83 634.218C427.796 642.601 433.136 637.357 391.059 682.925C388.398 685.805 384.591 687.467 380.674 687.467H127.452C115.921 658.756 91.5835 644.207 65.694 644.207C29.456 644.207 0 673.656 0 709.844C0 746.033 29.4745 775.5 65.694 775.5C91.2508 775.5 115.791 761.246 127.452 732.222H380.674C397.083 732.222 412.883 725.298 424.008 713.26L459.211 675.115C468.783 664.757 482.347 658.812 496.447 658.812H658.769C658.547 652.442 658.436 645.998 658.436 639.554C658.436 631.006 658.639 622.476 659.028 614.019L659.046 614.075ZM190.189 577.536C178.658 577.536 169.289 568.156 169.289 556.654C169.289 545.151 178.676 535.79 190.189 535.79C201.702 535.79 211.071 545.151 211.071 556.654C211.071 568.156 201.702 577.536 190.189 577.536ZM65.694 730.763C54.1629 730.763 44.8123 721.384 44.8123 709.881C44.8123 698.379 54.1814 689.018 65.694 689.018C77.2066 689.018 86.5941 698.397 86.5941 709.881C86.5941 721.366 77.2066 730.763 65.694 730.763Z"
        fill="#007CFF" />
    <path
        d="M1230.02 0.779297H1169.36C1160.21 0.779297 1152.8 8.18597 1152.8 17.3225V43.2635C1152.8 52.4001 1160.21 59.8067 1169.36 59.8067H1230.02C1239.17 59.8067 1246.58 52.4001 1246.58 43.2635V17.3225C1246.58 8.18597 1239.17 0.779297 1230.02 0.779297Z"
        fill="#656363" />
    <path d="M1230.1 59.8232H1168.14V161.15H1230.1V59.8232Z" fill="#656363" />
    <path
        d="M1581.05 150.066L1548.83 182.738C1542.46 189.196 1542.54 199.589 1549.01 205.951L1614.6 270.517C1621.07 276.878 1631.47 276.8 1637.84 270.342L1670.05 237.67C1676.42 231.212 1676.34 220.819 1669.88 214.458L1604.28 149.892C1597.81 143.53 1587.41 143.608 1581.05 150.066Z"
        fill="#656363" />
    <path d="M1488.85 289.229L1532.98 332.661L1604.18 260.45L1560.05 217.018L1488.85 289.229Z" fill="#656363" />
    <path
        d="M789.188 153.088L723.589 217.654C717.125 224.016 717.047 234.408 723.415 240.866L755.628 273.539C761.995 279.997 772.397 280.075 778.86 273.713L844.459 209.147C850.923 202.785 851.001 192.393 844.634 185.935L812.42 153.262C806.053 146.804 795.651 146.726 789.188 153.088Z"
        fill="#656363" />
    <path d="M833.818 220.332L789.69 263.765L860.887 335.976L905.014 292.543L833.818 220.332Z" fill="#656363" />
    <path
        d="M1200.01 1140.69C1477.14 1140.69 1701.8 916.341 1701.8 639.593C1701.8 362.845 1477.14 138.497 1200.01 138.497C922.882 138.497 698.225 362.845 698.225 639.593C698.225 916.341 922.882 1140.69 1200.01 1140.69Z"
        fill="#244C80" />
    <g opacity="0.3">
        <path
            d="M749.136 859.658C750.041 861.505 750.947 863.332 751.871 865.16C750.947 863.332 750.041 861.486 749.136 859.658Z"
            fill="#656363" />
    </g>
    <g opacity="0.3">
        <path
            d="M744.644 850.278C745.512 852.143 746.381 853.989 747.268 855.817C746.381 853.971 745.512 852.125 744.644 850.278Z"
            fill="#656363" />
    </g>
    <g opacity="0.3">
        <path
            d="M760.925 882.295C761.923 884.086 762.921 885.858 763.937 887.631C762.921 885.858 761.904 884.086 760.925 882.295Z"
            fill="#656363" />
    </g>
    <g opacity="0.3">
        <path
            d="M753.665 868.683C755.439 872.135 757.25 875.551 759.116 878.948C757.268 875.551 755.439 872.117 753.665 868.683Z"
            fill="#656363" />
    </g>
    <g opacity="0.3">
        <path
            d="M843.841 992.519C845.097 993.793 846.354 995.048 847.629 996.304C846.354 995.048 845.097 993.774 843.841 992.519Z"
            fill="#656363" />
    </g>
    <g opacity="0.3">
        <path
            d="M1185.17 1140.45C1186.34 1140.49 1187.48 1140.53 1188.65 1140.54C1187.48 1140.53 1186.34 1140.47 1185.17 1140.45Z"
            fill="#656363" />
    </g>
    <g opacity="0.3">
        <path
            d="M1148.4 1138.05C1149.25 1138.14 1150.12 1138.23 1150.97 1138.33C1150.1 1138.23 1149.25 1138.14 1148.4 1138.05Z"
            fill="#656363" />
    </g>
    <g opacity="0.3">
        <path
            d="M1136.15 1136.64C1137.37 1136.79 1138.61 1136.96 1139.84 1137.11C1138.61 1136.96 1137.39 1136.81 1136.15 1136.64Z"
            fill="#656363" />
    </g>
    <g opacity="0.3">
        <path
            d="M771.366 900.147C772.438 901.883 773.491 903.637 774.563 905.354C773.473 903.637 772.42 901.883 771.366 900.147Z"
            fill="#656363" />
    </g>
    <g opacity="0.3">
        <path
            d="M1173.38 1139.99C1174.62 1140.07 1175.88 1140.12 1177.11 1140.18C1175.86 1140.12 1174.62 1140.07 1173.38 1139.99Z"
            fill="#656363" />
    </g>
    <g opacity="0.3">
        <path
            d="M1696.68 592.725C1696.73 592.523 1696.79 592.321 1696.84 592.101C1696.79 592.303 1696.73 592.505 1696.68 592.725Z"
            fill="#656363" />
    </g>
    <g opacity="0.3">
        <path
            d="M1694.35 600.738C1694.41 600.536 1694.46 600.352 1694.53 600.15C1694.48 600.352 1694.42 600.536 1694.35 600.738Z"
            fill="#656363" />
    </g>
    <g opacity="0.3">
        <path
            d="M776.061 907.7C778.26 911.153 780.477 914.569 782.75 917.947C780.477 914.55 778.241 911.134 776.061 907.7Z"
            fill="#656363" />
    </g>
    <g opacity="0.3">
        <path
            d="M827.358 975.132C829.243 977.218 831.147 979.286 833.05 981.335C831.128 979.286 829.243 977.218 827.358 975.132Z"
            fill="#656363" />
    </g>
    <g opacity="0.3">
        <path
            d="M819.615 966.339C820.835 967.742 822.036 969.164 823.274 970.548C822.036 969.145 820.835 967.742 819.615 966.339Z"
            fill="#656363" />
    </g>
    <g opacity="0.3">
        <path
            d="M785.169 921.548C786.278 923.191 787.423 924.816 788.551 926.422C787.423 924.797 786.278 923.173 785.169 921.548Z"
            fill="#656363" />
    </g>
    <g opacity="0.3">
        <path
            d="M812.87 958.358C814.071 959.817 815.291 961.276 816.529 962.734C815.309 961.294 814.09 959.835 812.87 958.358Z"
            fill="#656363" />
    </g>
    <g opacity="0.3">
        <path
            d="M877.917 1023.82C879.174 1024.87 880.412 1025.92 881.687 1026.95C880.43 1025.92 879.174 1024.87 877.917 1023.82Z"
            fill="#656363" />
    </g>
    <g opacity="0.3">
        <path
            d="M926.667 1059.86C927.868 1060.63 929.088 1061.41 930.289 1062.16C929.088 1061.39 927.868 1060.63 926.667 1059.86Z"
            fill="#656363" />
    </g>
    <g opacity="0.3">
        <path
            d="M915.247 1052.19C916.319 1052.93 917.391 1053.69 918.481 1054.43C917.391 1053.69 916.337 1052.93 915.247 1052.19Z"
            fill="#656363" />
    </g>
    <g opacity="0.3">
        <path
            d="M906.005 1045.67C907.298 1046.6 908.573 1047.54 909.867 1048.46C908.573 1047.54 907.28 1046.62 906.005 1045.67Z"
            fill="#656363" />
    </g>
    <g opacity="0.3">
        <path
            d="M944.979 1071.21C946.181 1071.93 947.4 1072.65 948.601 1073.35C947.382 1072.65 946.181 1071.93 944.979 1071.21Z"
            fill="#656363" />
    </g>
    <g opacity="0.3">
        <path
            d="M966.674 1083.32C967.912 1083.97 969.169 1084.62 970.425 1085.26C969.169 1084.62 967.93 1083.97 966.674 1083.32Z"
            fill="#656363" />
    </g>
    <g opacity="0.3">
        <path
            d="M851.567 1000.11C853.36 1001.85 855.152 1003.56 856.982 1005.26C855.171 1003.56 853.36 1001.85 851.567 1000.11Z"
            fill="#656363" />
    </g>
    <g opacity="0.3">
        <path
            d="M888.47 1032.4C889.8 1033.45 891.149 1034.5 892.498 1035.53C891.149 1034.48 889.8 1033.45 888.47 1032.4Z"
            fill="#656363" />
    </g>
    <g opacity="0.3">
        <path
            d="M869.804 1016.88C871.097 1018 872.391 1019.13 873.703 1020.25C872.391 1019.13 871.097 1018.02 869.804 1016.88Z"
            fill="#656363" />
    </g>
    <g opacity="0.3">
        <path
            d="M861.989 1009.92C863.246 1011.06 864.502 1012.17 865.759 1013.3C864.502 1012.17 863.227 1011.05 861.989 1009.92Z"
            fill="#656363" />
    </g>
    <g opacity="0.3">
        <path
            d="M1065.02 1122.33C1065.87 1122.57 1066.72 1122.81 1067.59 1123.05C1066.74 1122.81 1065.89 1122.57 1065.02 1122.33Z"
            fill="#656363" />
    </g>
    <g opacity="0.3">
        <path
            d="M1053.45 1118.95C1054.67 1119.32 1055.91 1119.69 1057.13 1120.06C1055.89 1119.69 1054.67 1119.32 1053.45 1118.95Z"
            fill="#656363" />
    </g>
    <g opacity="0.3">
        <path
            d="M1088.69 1128.3C1089.91 1128.58 1091.15 1128.85 1092.37 1129.11C1091.15 1128.83 1089.91 1128.58 1088.69 1128.3Z"
            fill="#656363" />
    </g>
    <g opacity="0.3">
        <path
            d="M1042.92 1115.64C1044.12 1116.02 1045.3 1116.41 1046.5 1116.8C1045.3 1116.41 1044.1 1116.04 1042.92 1115.64Z"
            fill="#656363" />
    </g>
    <g opacity="0.3">
        <path
            d="M1019.43 1107.23C1020.58 1107.68 1021.7 1108.12 1022.85 1108.54C1021.7 1108.12 1020.56 1107.66 1019.43 1107.23Z"
            fill="#656363" />
    </g>
    <g opacity="0.3">
        <path
            d="M986.892 1093.35C987.834 1093.79 988.758 1094.23 989.7 1094.68C988.758 1094.25 987.834 1093.79 986.892 1093.35Z"
            fill="#656363" />
    </g>
    <g opacity="0.3">
        <path
            d="M1009.01 1103.1C1010.27 1103.62 1011.5 1104.12 1012.76 1104.63C1011.5 1104.13 1010.25 1103.62 1009.01 1103.1Z"
            fill="#656363" />
    </g>
    <g opacity="0.3">
        <path
            d="M976.321 1088.26C977.578 1088.88 978.816 1089.49 980.072 1090.12C978.816 1089.51 977.578 1088.88 976.321 1088.26Z"
            fill="#656363" />
    </g>
    <g opacity="0.3">
        <path
            d="M1032.72 1112.17C1033.27 1112.37 1033.85 1112.55 1034.42 1112.76C1033.85 1112.55 1033.29 1112.37 1032.72 1112.17Z"
            fill="#656363" />
    </g>
    <path
        d="M1200.01 1014.16C1407.2 1014.16 1575.16 846.458 1575.16 639.591C1575.16 432.724 1407.2 265.024 1200.01 265.024C992.822 265.024 824.862 432.724 824.862 639.591C824.862 846.458 992.822 1014.16 1200.01 1014.16Z"
        stroke="#656363" stroke-width="3.65068" stroke-miterlimit="10" />
    <path
        d="M1200.01 1053.61C1428.99 1053.61 1614.61 868.25 1614.61 639.591C1614.61 410.933 1428.99 225.568 1200.01 225.568C971.033 225.568 785.409 410.933 785.409 639.591C785.409 868.25 971.033 1053.61 1200.01 1053.61Z"
        fill="white" />
    <path
        d="M1200.01 679.211C1178.13 679.211 1160.36 661.43 1160.36 639.588C1160.36 617.746 1178.15 599.966 1200.01 599.966C1221.87 599.966 1239.67 617.746 1239.67 639.588C1239.67 661.43 1221.87 679.211 1200.01 679.211ZM1200.01 612.318C1184.95 612.318 1172.72 624.559 1172.72 639.588C1172.72 654.617 1184.97 666.859 1200.01 666.859C1215.06 666.859 1227.31 654.617 1227.31 639.588C1227.31 624.559 1215.06 612.318 1200.01 612.318Z"
        fill="#656363" />
    <path
        d="M1210.56 639.592C1210.56 645.408 1205.83 650.135 1200.01 650.135C1194.19 650.135 1189.46 645.408 1189.46 639.592C1189.46 633.776 1194.19 629.05 1200.01 629.05C1205.83 629.05 1210.56 633.776 1210.56 639.592Z"
        fill="#656363" />
    <path
        d="M1218.29 518.398C1212.5 511.419 1205.37 494.119 1203.84 480.751C1203.11 470.227 1202.04 459.703 1200.01 449.179C1198.05 459.352 1196.98 469.507 1196.26 479.68C1195 493.177 1187.65 511.234 1181.72 518.398C1176.04 525.248 1166.51 553.478 1192.14 560.716C1192.05 562.784 1191.97 564.852 1191.88 566.92C1191.34 579.992 1190.97 593.082 1190.72 606.154H1209.25C1208.99 593.064 1208.62 579.992 1208.09 566.92C1207.99 564.852 1207.92 562.784 1207.83 560.716C1233.46 553.478 1223.9 525.248 1218.25 518.416L1218.29 518.398Z"
        fill="#656363" />
    <path
        d="M1292.1 780.949C1301.06 782.241 1317.74 791.934 1327.87 800.797C1335.08 808.773 1374.88 851.109 1377.71 848.008C1380.54 844.924 1341.77 801.868 1335.47 793.836C1327.32 782.98 1319.59 765.679 1319.17 756.392C1318.76 747.53 1306.86 720.204 1283 732.039C1281.67 730.451 1280.34 728.882 1279.03 727.276C1270.64 717.231 1232.89 671.627 1224.29 661.749L1210.56 674.193C1219.56 683.702 1257.83 728.826 1267.02 738.15C1268.48 739.628 1269.92 741.105 1271.36 742.582C1257.24 765.144 1283.28 779.656 1292.08 780.912L1292.1 780.949Z"
        fill="#656363" />
    <path
        d="M1200.42 365.633C1196.56 365.633 1193.42 362.494 1193.42 358.635V286.573C1193.42 282.714 1196.56 279.575 1200.42 279.575C1204.28 279.575 1207.42 282.714 1207.42 286.573V358.635C1207.42 362.494 1204.28 365.633 1200.42 365.633Z"
        fill="#656363" />
    <path
        d="M918.811 646.188H846.686C842.824 646.188 839.683 643.049 839.683 639.19C839.683 635.331 842.824 632.192 846.686 632.192H918.811C922.673 632.192 925.815 635.331 925.815 639.19C925.815 643.049 922.673 646.188 918.811 646.188Z"
        fill="#656363" />
    <path
        d="M1199.6 999.611C1195.74 999.611 1192.6 996.472 1192.6 992.613V920.55C1192.6 916.691 1195.74 913.553 1199.6 913.553C1203.47 913.553 1206.61 916.691 1206.61 920.55V992.613C1206.61 996.472 1203.47 999.611 1199.6 999.611Z"
        fill="#656363" />
    <path
        d="M1553.33 647.001H1481.21C1477.35 647.001 1474.21 643.862 1474.21 640.003C1474.21 636.145 1477.35 633.006 1481.21 633.006H1553.33C1557.2 633.006 1560.34 636.145 1560.34 640.003C1560.34 643.862 1557.2 647.001 1553.33 647.001Z"
        fill="#656363" />
    <path d="M1023.7 333.677L1059.77 396.083" stroke="#656363" stroke-width="19.7502" stroke-miterlimit="10"
        stroke-linecap="round" />
    <path d="M894.233 462.731L956.693 498.772" stroke="#656363" stroke-width="19.7502" stroke-miterlimit="10"
        stroke-linecap="round" />
    <path d="M893.827 815.751L956.287 779.729" stroke="#656363" stroke-width="19.7502" stroke-miterlimit="10"
        stroke-linecap="round" />
    <path d="M1023 945.106L1059.07 882.7" stroke="#656363" stroke-width="19.7502" stroke-miterlimit="10"
        stroke-linecap="round" />
    <path d="M1376.32 945.513L1340.25 883.106" stroke="#656363" stroke-width="19.7502" stroke-miterlimit="10"
        stroke-linecap="round" />
    <path d="M1505.79 816.451L1443.33 780.429" stroke="#656363" stroke-width="19.7502" stroke-miterlimit="10"
        stroke-linecap="round" />
    <path d="M1506.2 463.432L1443.74 499.472" stroke="#656363" stroke-width="19.7502" stroke-miterlimit="10"
        stroke-linecap="round" />
    <path d="M1377.02 334.083L1340.95 396.489" stroke="#656363" stroke-width="19.7502" stroke-miterlimit="10"
        stroke-linecap="round" />
</svg>
