<svg xmlns="http://www.w3.org/2000/svg" xmlns:xlink="http://www.w3.org/1999/xlink" id="Ebene_1" x="0px" y="0px"
    viewBox="0 0 158 58" style="enable-background:new 0 0 158 58;" xml:space="preserve">
    <style type="text/css">
        .st0 {
            fill: #FFFFFF;
        }
    </style>
    <path id="Pfad_25_00000139271381839846578650000004288161067415532720_" class="st0"
        d="M48.9,15.9C41.7,15.9,36,21.8,36,29 c0,0,0,0,0,0c-0.1,7.2,5.7,13,12.9,13.1c0,0,0,0,0,0c7.2-0.1,13-5.9,12.9-13.1c0,0,0,0,0,0C61.9,21.8,56.1,16,48.9,15.9 C48.9,15.9,48.9,15.9,48.9,15.9z M54.8,34.8c-0.2,0.4-0.7,0.5-1.1,0.3c0,0,0,0,0,0c-3-1.9-6.8-2.3-11.3-1.3c-0.4,0.1-0.9-0.2-1-0.6 c0,0,0,0,0,0c-0.1-0.4,0.2-0.9,0.6-1c4.9-1.1,9.1-0.6,12.5,1.5C54.9,33.9,55.1,34.4,54.8,34.8 M56.4,31.2c-0.3,0.5-0.9,0.6-1.4,0.3 c0,0,0,0,0,0c-3.9-2.2-8.5-2.8-12.9-1.5c-0.5,0.2-1.1-0.1-1.3-0.7c0,0,0,0,0,0c-0.2-0.5,0.1-1.1,0.7-1.3c4.9-1.4,10.1-0.8,14.5,1.7 C56.6,30.1,56.7,30.7,56.4,31.2z M56.5,27.5c-4.2-2.5-11-2.7-15-1.5c-0.6,0.2-1.3-0.2-1.5-0.8c0,0,0,0,0,0c-0.2-0.6,0.2-1.3,0.8-1.5 c4.6-1.4,12.1-1.1,16.9,1.8c0.6,0.4,0.8,1.1,0.4,1.7C57.9,27.7,57.1,27.9,56.5,27.5C56.6,27.5,56.6,27.5,56.5,27.5L56.5,27.5z  M71.1,28c-2.2-0.5-2.6-0.9-2.6-1.7c0-0.8,0.7-1.3,1.7-1.3c1.1,0,2.2,0.5,3,1.2c0,0,0.1,0,0.1,0c0,0,0.1,0,0.1-0.1l1-1.4 c0.1-0.2,0.1-0.4-0.1-0.5c-1.2-0.9-2.6-1.4-4.1-1.4c-2.4,0-4.1,1.5-4.1,3.6c0,2.3,1.4,3,4,3.7c2.1,0.5,2.5,0.9,2.5,1.7 c0,0.8-0.7,1.3-1.9,1.3c-1.3,0-2.6-0.5-3.5-1.5c0,0-0.1,0-0.1,0c0,0-0.1,0-0.1,0.1l-1.2,1.5c-0.1,0.1,0,0.2,0,0.2 c1.3,1.2,3.1,1.9,4.9,1.9c2.6,0,4.3-1.4,4.3-3.7C74.9,29.7,73.8,28.7,71.1,28L71.1,28z M80.8,25.8c-0.9,0-1.8,0.3-2.5,1 c-0.1,0.1-0.2,0.1-0.3,0c0,0-0.1-0.1-0.1-0.1v-0.3c0-0.2-0.2-0.3-0.3-0.3H76c-0.2,0-0.3,0.2-0.3,0.3v11.1c0,0.2,0.2,0.3,0.3,0.3h1.6 c0.2,0,0.3-0.2,0.3-0.3v-2.9c0-0.1,0.1-0.2,0.2-0.2c0,0,0.1,0,0.1,0c0.7,0.6,1.6,1,2.5,0.9c2.1,0,4.2-1.6,4.2-4.8 S82.9,25.8,80.8,25.8L80.8,25.8z M82.7,30.5c0,1.6-1,2.7-2.3,2.7c-1.4-0.1-2.5-1.2-2.4-2.6c0,0,0-0.1,0-0.1 c-0.1-1.4,0.9-2.6,2.3-2.7c0,0,0.1,0,0.1,0C81.7,27.8,82.7,29,82.7,30.5z M90.4,25.8c-2.6,0-4.8,2.1-4.8,4.8c0,2.6,2.1,4.8,4.8,4.8 c2.6,0,4.8-2.1,4.8-4.8C95.2,27.9,93.1,25.8,90.4,25.8C90.4,25.8,90.4,25.8,90.4,25.8z M90.4,33.2c-1.4,0-2.5-1.2-2.5-2.6 c0,0,0-0.1,0-0.1c-0.1-1.4,0.9-2.6,2.3-2.7c0.1,0,0.1,0,0.2,0c1.4,0,2.5,1.2,2.5,2.6c0,0,0,0.1,0,0.1c0.1,1.4-0.9,2.6-2.3,2.7 C90.5,33.2,90.5,33.2,90.4,33.2 M100.9,25.9h-2c-0.1,0-0.2-0.1-0.2-0.2v0v-1.9c0-0.2-0.2-0.3-0.3-0.3h-1.6c-0.2,0-0.3,0.2-0.3,0.3 v1.9c0,0.1-0.1,0.2-0.2,0.2l0,0h-0.6c-0.2,0-0.3,0.2-0.3,0.3v1.3c0,0.2,0.2,0.3,0.3,0.3h0.6c0.1,0,0.2,0.1,0.2,0.2v0v4.3 c0,1.8,0.9,2.7,2.7,2.7c0.7,0,1.3-0.1,1.9-0.5c0,0,0.1-0.1,0.1-0.1V33c0-0.1,0-0.1-0.1-0.1c0,0-0.1,0-0.1,0 c-0.4,0.2-0.8,0.3-1.2,0.3c-0.6,0-0.9-0.3-0.9-1v-4c0-0.1,0.1-0.2,0.2-0.2l0,0h1.8c0.2,0,0.3-0.2,0.3-0.3v-1.5 C101.1,26,101,25.9,100.9,25.9L100.9,25.9z M108.6,26v-0.3c0-0.8,0.3-1.2,1-1.2c0.4,0,0.8,0.1,1.1,0.2c0,0,0.1,0,0.1,0 c0,0,0.1-0.1,0.1-0.1V23c0-0.2-0.1-0.3-0.3-0.3c-0.5-0.1-1-0.2-1.5-0.2c-1.8,0-2.8,1.1-2.8,3v0.2c0,0.1-0.1,0.2-0.2,0.2l0,0h-0.6 c-0.2,0-0.3,0.2-0.3,0.3v1.4c0,0.2,0.2,0.3,0.3,0.3h0.6c0.1,0,0.2,0.1,0.2,0.2v0v6.7c0,0.1,0.1,0.1,0.1,0.1h1.8 c0.2,0,0.3-0.2,0.3-0.3v-6.5c0-0.1,0.1-0.2,0.2-0.2l0,0h1.5c0.1,0,0.2,0,0.2,0.1l2.8,6.7c0,0.1,0,0.1,0,0.2c-0.3,0.7-0.6,0.8-1,0.8 c-0.4,0-0.8-0.1-1.1-0.3c0,0-0.1,0-0.1,0c0,0-0.1,0-0.1,0.1l-0.6,1.3c-0.1,0.2,0,0.4,0.2,0.5c0.6,0.3,1.3,0.5,1.9,0.5 c1.5,0,2.3-0.7,3-2.6l3.5-9.1c0,0,0-0.1,0-0.1c0,0-0.1-0.1-0.1-0.1h-2.1c-0.1,0-0.1,0-0.1,0.1l-1.9,5.6c0,0.1-0.2,0.2-0.3,0.1 c-0.1,0-0.1-0.1-0.1-0.1l-2.1-5.7c0-0.1-0.1-0.1-0.1-0.1L108.6,26L108.6,26z M104.1,25.9h-1.8c-0.2,0-0.3,0.2-0.3,0.3v8.6 c0,0.1,0.1,0.1,0.1,0.1h2c0.1,0,0.1-0.1,0.1-0.1v-8.8C104.3,26,104.2,25.9,104.1,25.9L104.1,25.9z M103.1,21.9 c-0.8,0-1.5,0.6-1.5,1.4s0.6,1.5,1.4,1.5c0.8,0,1.5-0.6,1.5-1.4c0,0,0,0,0,0C104.6,22.6,103.9,21.9,103.1,21.9 M120.6,28.8 c-0.8,0-1.4-0.6-1.4-1.4c0-0.8,0.6-1.4,1.4-1.4s1.4,0.6,1.4,1.4c0,0,0,0,0,0C122,28.1,121.4,28.8,120.6,28.8 C120.6,28.8,120.6,28.8,120.6,28.8 M120.6,26.1c-0.7,0-1.3,0.5-1.3,1.3c0,0.7,0.5,1.3,1.3,1.3s1.3-0.5,1.3-1.3c0,0,0,0,0,0 C121.9,26.7,121.3,26.1,120.6,26.1C120.6,26.1,120.6,26.1,120.6,26.1 M120.9,27.5l0.4,0.6h-0.2c-0.1,0-0.1,0-0.2-0.1l-0.2-0.3 c-0.1-0.1-0.2-0.1-0.3,0c-0.1,0-0.1,0.1-0.1,0.2v0.3H120v-1.3c0-0.1,0.1-0.2,0.2-0.2l0,0h0.5c0.3,0,0.6,0.2,0.6,0.5 C121.3,27.3,121.1,27.5,120.9,27.5L120.9,27.5z M120.7,26.8h-0.2c-0.1,0-0.2,0.1-0.2,0.2l0,0v0.1c0,0.1,0.1,0.2,0.2,0.2l0,0h0.2 c0.2,0,0.3-0.1,0.3-0.2C121,26.9,120.9,26.8,120.7,26.8">
    </path>
</svg>
