<svg xmlns="http://www.w3.org/2000/svg" xmlns:xlink="http://www.w3.org/1999/xlink" id="Ebene_1" x="0px" y="0px"
    viewBox="0 0 158 58" style="enable-background:new 0 0 158 58;" xml:space="preserve">
    <style type="text/css">
        .st0 {
            fill: #FFFFFF;
        }
    </style>
    <path id="Pfad_20_00000015356732458047059920000011832609054283854005_" class="st0"
        d="M63.9,23.7c-0.3-1.1-1.2-2-2.3-2.3 c-2-0.5-10.1-0.5-10.1-0.5s-8.1,0-10.1,0.6c-1.1,0.3-2,1.2-2.3,2.3c-0.6,3.6-0.8,9,0,12.5c0.3,1.1,1.2,2,2.3,2.3 c2,0.5,10.1,0.5,10.1,0.5s8.1,0,10.1-0.5c1.1-0.3,2-1.2,2.3-2.3C64.5,32.6,64.7,27.2,63.9,23.7 M48.9,33.9v-7.8l6.7,3.9L48.9,33.9z">
    </path>
    <path id="Pfad_21_00000127766591088830439640000014838789956422274710_" class="st0"
        d="M76.1,37.4c-0.5-0.4-0.9-1-1.1-1.6 c-0.2-1-0.3-1.9-0.3-2.9v-1.6c0-1,0.1-2,0.4-2.9c0.2-0.7,0.6-1.2,1.2-1.6c0.6-0.4,1.3-0.5,2.1-0.5c0.7,0,1.4,0.1,2,0.5 c0.5,0.4,0.9,1,1.1,1.6c0.3,1,0.4,1.9,0.3,2.9v1.6c0,1-0.1,2-0.3,2.9c-0.2,0.7-0.6,1.2-1.1,1.6c-0.6,0.4-1.4,0.5-2.1,0.5 C77.5,37.9,76.8,37.8,76.1,37.4 M79,35.6c0.2-0.6,0.2-1.2,0.2-1.8v-3.5c0-0.6,0-1.2-0.2-1.8c-0.1-0.3-0.4-0.6-0.7-0.6 c-0.3,0-0.6,0.2-0.7,0.6c-0.2,0.6-0.2,1.2-0.2,1.8v3.5c0,0.6,0,1.2,0.2,1.8c0.1,0.3,0.4,0.6,0.7,0.5C78.6,36.2,78.9,35.9,79,35.6  M115.5,32.9v0.6l0.1,1.6c0,0.3,0.1,0.6,0.3,0.8c0.4,0.3,0.9,0.3,1.3,0c0,0,0.1-0.1,0.1-0.2c0.2-0.5,0.3-1,0.2-1.5l2.2,0.1 c0,0.1,0,0.3,0,0.4c0.1,0.9-0.2,1.7-0.9,2.3c-0.7,0.6-1.6,0.8-2.4,0.8c-1,0.1-2-0.3-2.6-1.2c-0.6-1.1-0.8-2.4-0.8-3.7v-2 c0.1-2.8,0.6-4.9,3.5-4.9c0.7,0,1.4,0.1,2,0.5c0.5,0.4,0.9,0.9,1,1.5c0.2,0.9,0.3,1.9,0.3,2.8v1.9L115.5,32.9L115.5,32.9z  M115.8,28.1c-0.2,0.2-0.2,0.5-0.3,0.8c-0.1,0.4-0.1,1.7-0.1,1.7v0.8h1.9v-0.8c0,0.8,0-1.3-0.1-1.7c0-0.3-0.1-0.6-0.3-0.8 c-0.2-0.2-0.4-0.2-0.6-0.2C116.2,27.9,116,28,115.8,28.1 M69.9,32.7L67,22.2h2.5c0,0,1.2,5.3,1.6,7.8h0.1c0.5-2.6,1.6-7.8,1.6-7.8 h2.5l-2.9,10.5v5h-2.5L69.9,32.7L69.9,32.7z">
    </path>
    <path id="Pfad_22_00000094605740087301973870000003038441997216721575_" class="st0"
        d="M90,26.4v11.4h-2l-0.2-1.4h-0.1 c-0.4,1-1.4,1.6-2.4,1.6c-2,0-2.2-1.7-2.2-3.1v-8.5h2.6v8.3c0,0.4,0,0.7,0.2,1.1c0.2,0.5,0.8,0.3,1.2,0.1c0.2-0.1,0.3-0.3,0.4-0.5 v-9H90z">
    </path>
    <path id="Pfad_23_00000050639864087335132740000003580109399828532392_" class="st0"
        d="M97,24.2h-2.5v13.5h-2.5V24.2h-2.5v-2.1H97 L97,24.2L97,24.2z M111.6,28.2c-0.1-0.6-0.3-1.1-0.7-1.6c-0.4-0.3-0.9-0.5-1.4-0.5c-0.5,0-0.9,0.1-1.3,0.4c-0.4,0.3-0.7,0.6-0.9,1h0 v-6h-2.5v16.1h2.1l0.3-1.1h0.1c0.2,0.4,0.5,0.7,0.9,0.9c0.4,0.2,0.9,0.3,1.3,0.3c0.8,0,1.6-0.4,1.9-1.2c0.5-1.2,0.7-2.5,0.6-3.7 v-1.8C111.9,30.2,111.8,29.2,111.6,28.2 M109.3,32.8c0,0.7,0,1.3-0.1,1.9c0,0.4-0.1,0.7-0.3,1c-0.2,0.2-0.4,0.3-0.6,0.3 c-0.4,0-0.8-0.2-1-0.6V29c0.1-0.3,0.2-0.6,0.4-0.8c0.3-0.4,0.8-0.4,1.1-0.1c0.1,0,0.1,0.1,0.1,0.1c0.2,0.3,0.3,0.7,0.3,1 c0.1,0.5,0.1,1.2,0.1,2.1V32.8z">
    </path>
    <path id="Pfad_24_00000021104709174940310060000015073528536525206438_" class="st0"
        d="M103.2,26.4v11.4h-2l-0.2-1.4h-0.1 c-0.4,1-1.4,1.6-2.4,1.6c-2,0-2.2-1.7-2.2-3.1v-8.5h2.6v8.3c0,0.4,0,0.7,0.2,1.1c0.2,0.5,0.8,0.3,1.2,0.1c0.2-0.1,0.3-0.3,0.4-0.5 v-9H103.2z">
    </path>
</svg>
